<svg width="522" height="222" viewBox="0 0 522 222" fill="none" xmlns="http://www.w3.org/2000/svg">
<path d="M71.3594 39.9276V56.493H43.751V156.877H27.6104V56.493H0V39.9276H71.3594Z" fill="#FAF2EC"/>
<path d="M91.3763 0V39.9277H120.207V56.4932H91.3763V97.6953H75.2357V0H91.3763Z" fill="#FAF2EC"/>
<path d="M185.195 97.6949H143.994V114.261H185.195V97.6949Z" fill="#FAF2EC"/>
<path d="M185.195 68.8112H143.994V85.3768H185.195V68.8112Z" fill="#FAF2EC"/>
<path d="M185.195 39.9276H143.994V56.4933H185.195V39.9276Z" fill="#FAF2EC"/>
<path d="M140.171 0H124.03V114.261H140.171V0Z" fill="#FAF2EC"/>
<path d="M440.901 97.6949H400.124V114.261H440.901V97.6949Z" fill="#FAF2EC"/>
<path d="M433.255 126.579H392.478V143.144H433.255V126.579Z" fill="#FAF2EC"/>
<path d="M422.212 155.462H381.435V172.028H422.212V155.462Z" fill="#FAF2EC"/>
<path d="M280.342 114.261H210.681L250.608 1.27429L265.936 6.62926L233.779 97.6949H286.025L280.342 114.261Z" fill="#FAF2EC"/>
<path d="M461.29 79.0054H445.149V152.489H461.29V79.0054Z" fill="#FAF2EC"/>
<path fill-rule="evenodd" clip-rule="evenodd" d="M415.84 56.4934C417.872 56.4934 466.61 56.0182 482.001 56.8732C494.934 57.6214 519.089 59.1178 519.089 84.5559C519.089 101.993 505.982 109.133 494.776 112.108L521.143 179.177L506.233 185.141L477.766 114.186L465.113 114.26V97.6945L481.36 97.9162C501.24 96.6336 502.843 91.1826 502.843 84.5559C502.843 77.9291 499.851 74.2951 481.04 73.1193C466.29 72.2643 416.695 73.1193 416.161 73.1193L415.84 56.4934Z" fill="#FAF2EC"/>
<path d="M353.046 104.414L353.027 104.42L365.325 138.579L383.134 87.9257L398.426 93.4481L353.4 221.301L338.109 215.991L356.794 162.845L337.684 109.766L339.183 109.226L337.654 109.758L322.584 66.577H319.27L308.282 97.6952H328.496L334.352 114.261H302.433L293.51 139.533L278.43 133.8L307.727 50.3309H334.127L353.046 104.414Z" fill="#FAF2EC"/>
</svg>
